<svg width="148" height="54" viewBox="0 0 148 54" fill="none" xmlns="http://www.w3.org/2000/svg">
<path d="M62.2701 10.6348H47.0808V41.3228H31.0968V10.6348H15.9075V41.3228H0V10.7828C0 9.36229 0.30562 8.0306 0.916861 6.77289C1.5281 5.51519 2.33799 4.43505 3.33126 3.50286C4.33981 2.58548 5.50116 1.84565 6.81533 1.29818C8.1295 0.750712 9.53535 0.484375 11.0023 0.484375H78.2693V41.3228H62.2854V10.6348H62.2701Z" fill="#B5D411"/>
<path d="M147.955 31.1724V41.3228H96.9772C95.4643 41.3228 94.0279 41.0416 92.6832 40.4646C91.3385 39.9023 90.1618 39.1329 89.1686 38.1563C88.16 37.1797 87.3654 36.0552 86.7847 34.7531C86.2041 33.451 85.8984 32.0601 85.8984 30.5953V11.2119C85.8984 9.74699 86.1888 8.35612 86.7847 7.05403C87.3654 5.75194 88.16 4.6126 89.1686 3.65083C90.1771 2.67426 91.3385 1.90484 92.6832 1.34257C94.0279 0.780305 95.4643 0.484375 96.9772 0.484375H147.955V10.6348H101.898V31.1576H147.955V31.1724ZM110.837 25.6976V16.1835H144.73V25.6976H110.837Z" fill="#B5D411"/>
<path d="M71.571 51.7858V53.3783H63.5663C63.3265 53.3783 63.105 53.3355 62.891 53.2462C62.6806 53.157 62.4961 53.0356 62.3374 52.8856C62.1787 52.7356 62.0569 52.5535 61.9647 52.35C61.8724 52.1465 61.8281 51.9287 61.8281 51.6966V48.6544C61.8281 48.4259 61.8724 48.2081 61.9647 48.001C62.0569 47.7975 62.1824 47.6189 62.3374 47.4654C62.4961 47.3119 62.6806 47.194 62.891 47.1048C63.1013 47.0155 63.3265 46.9727 63.5663 46.9727H71.5673V48.5651H64.3376V51.7858H71.5673H71.571ZM65.7437 50.9289V49.4364H71.0617V50.9289H65.7437Z" fill="#444444"/>
<path d="M75.2632 51.7858H82.4929V53.3783H72.75V46.9727H75.2595V51.7858H75.2632Z" fill="#444444"/>
<path d="M93.4267 51.7858V53.3783H85.4257C85.1858 53.3783 84.9644 53.3355 84.7504 53.2462C84.54 53.157 84.3555 53.0356 84.1968 52.8856C84.0381 52.7356 83.9163 52.5535 83.824 52.35C83.7318 52.1465 83.6875 51.9287 83.6875 51.6966V48.6544C83.6875 48.4259 83.7318 48.2081 83.824 48.001C83.9163 47.7975 84.0418 47.6189 84.1968 47.4654C84.3555 47.3119 84.54 47.194 84.7504 47.1048C84.9607 47.0155 85.1858 46.9727 85.4257 46.9727H93.4267V48.5651H86.197V51.7858H93.4267ZM87.5994 50.9289V49.4364H92.9174V50.9289H87.5994Z" fill="#444444"/>
<path d="M97.1189 51.7858H104.349V53.3783H96.3476C96.1077 53.3783 95.8863 53.3355 95.6722 53.2462C95.4619 53.157 95.2774 53.0356 95.1187 52.8856C94.96 52.7356 94.8382 52.5535 94.7459 52.35C94.6537 52.1465 94.6094 51.9287 94.6094 51.6966V48.6544C94.6094 48.4259 94.6537 48.2081 94.7459 48.001C94.8382 47.7975 94.9637 47.6189 95.1187 47.4654C95.2774 47.3119 95.4619 47.194 95.6722 47.1048C95.8826 47.0155 96.1077 46.9727 96.3476 46.9727H104.349V48.5651H97.1189V51.7858Z" fill="#444444"/>
<path d="M115.211 48.5651H111.632V53.3783H109.122V48.5651H105.531V46.9727H115.215V48.5651H115.211Z" fill="#444444"/>
<path d="M123.65 48.5651H118.908V53.3783H116.398V46.9727H124.193C124.436 46.9727 124.676 47.0119 124.912 47.0941C125.145 47.1762 125.355 47.2904 125.54 47.4404C125.724 47.5904 125.872 47.7653 125.983 47.9689C126.093 48.1724 126.149 48.3973 126.149 48.6437V49.4114C126.149 49.6328 126.09 49.847 125.972 50.0505C125.853 50.254 125.698 50.4326 125.51 50.5861C125.322 50.7397 125.112 50.8611 124.883 50.9539C124.654 51.0467 124.429 51.0931 124.215 51.0931L126.045 53.3783H123.351L120.38 49.5899H123.65V48.5651Z" fill="#444444"/>
<path d="M127.305 51.7858H130.896V48.5651H127.316V46.9727H137V48.5651H133.409V51.7858H136.988V53.3783H127.305V51.7858Z" fill="#444444"/>
<path d="M140.654 51.7858H147.883V53.3783H139.883C139.643 53.3783 139.421 53.3355 139.207 53.2462C138.997 53.157 138.812 53.0356 138.654 52.8856C138.495 52.7321 138.373 52.5535 138.281 52.35C138.189 52.1465 138.141 51.9287 138.141 51.6966V48.6544C138.141 48.4259 138.185 48.2081 138.281 48.001C138.373 47.7975 138.499 47.6189 138.654 47.4654C138.812 47.3119 138.997 47.194 139.207 47.1048C139.418 47.0155 139.643 46.9727 139.883 46.9727H147.883V48.5651H140.654V51.7858Z" fill="#444444"/>
<path d="M72.7766 47.3356V47.0206H72.6562V46.9727H72.9604V47.0206H72.8405V47.336H72.7766V47.3356Z" fill="#444444"/>
<path d="M72.977 47.3356V46.9727H73.0424L73.1618 47.2077L73.2807 46.9727H73.346V47.336H73.2826V47.0723L73.1808 47.2731H73.1423L73.0399 47.0723V47.3356H72.9766H72.977Z" fill="#444444"/>
<path d="M9.83023 48.5738H7.43238V53.4144H4.90909V48.5738H2.51123V53.4144H0V48.5971C0 48.373 0.0482466 48.163 0.14474 47.9646C0.241233 47.7662 0.369086 47.5958 0.525887 47.4488C0.685101 47.3041 0.868438 47.1874 1.0759 47.101C1.28336 47.0147 1.50529 46.9727 1.73688 46.9727H12.3559V53.4144H9.83265V48.5738H9.83023Z" fill="#444444"/>
<path d="M23.3043 51.8133V53.4144H15.2567C15.0179 53.4144 14.7912 53.3701 14.5789 53.2791C14.3666 53.1904 14.1809 53.069 14.0241 52.915C13.8648 52.7609 13.7394 52.5835 13.6477 52.3781C13.5561 52.1728 13.5078 51.9534 13.5078 51.7223V48.6648C13.5078 48.4337 13.5536 48.2143 13.6477 48.0089C13.7394 47.8036 13.8648 47.6238 14.0241 47.4721C14.1833 47.3181 14.3666 47.1967 14.5789 47.108C14.7912 47.0193 15.0179 46.9727 15.2567 46.9727H23.3043V48.5738H16.0335V51.811H23.3043V51.8133ZM17.4447 50.9498V49.449H22.7953V50.9498H17.4447Z" fill="#444444"/>
<path d="M24.5234 51.8133H28.1371V48.5738H24.5355V46.9727H34.2741V48.5738H30.6604V51.811H34.262V53.4121H24.5234V51.811V51.8133Z" fill="#444444"/>
<path d="M37.9764 53.4144H35.4531V46.9727H43.5248C43.7564 46.9727 43.9759 47.0147 44.1858 47.101C44.3932 47.1874 44.5765 47.3017 44.7358 47.4488C44.895 47.5935 45.0204 47.7662 45.1169 47.9646C45.2134 48.163 45.2617 48.373 45.2617 48.5971V53.4144H42.748V48.5738H37.9764V53.4144Z" fill="#444444"/>
<path d="M56.2418 51.8133V53.4144H48.1942C47.9554 53.4144 47.7287 53.3701 47.5164 53.2791C47.3041 53.1904 47.1184 53.069 46.9616 52.915C46.8023 52.7609 46.6769 52.5835 46.5852 52.3781C46.4936 52.1728 46.4453 51.9534 46.4453 51.7223V48.6648C46.4453 48.4337 46.4911 48.2143 46.5852 48.0089C46.6769 47.8036 46.8023 47.6238 46.9616 47.4721C47.1208 47.3181 47.3041 47.1967 47.5164 47.108C47.7287 47.0193 47.9554 46.9727 48.1942 46.9727H56.2418V48.5738H48.971V51.811H56.2418V51.8133ZM50.3822 50.9498V49.449H55.7328V50.9498H50.3822Z" fill="#444444"/>
</svg>
