<svg width="1765" height="398" viewBox="0 0 1765 398" fill="none" xmlns="http://www.w3.org/2000/svg">
<mask id="mask0_4600_142" style="mask-type:luminance" maskUnits="userSpaceOnUse" x="0" y="32" width="474" height="252">
<path d="M0.664062 32.8438H473.997V284H0.664062V32.8438Z" fill="white"/>
</mask>
<g mask="url(#mask0_4600_142)">
<path d="M377.109 95.026H285.297V283.031H188.682V95.026H96.8698V283.031H0.71875V95.9323C0.71875 87.2292 2.56771 79.0729 6.26042 71.3698C9.95833 63.6615 14.8542 57.0469 20.8542 51.3333C26.9531 45.7135 33.974 41.1823 41.9167 37.8281C49.8594 34.474 58.3542 32.8438 67.224 32.8438H473.813V283.031H377.203V95.026H377.109Z" fill="#B5D411"/>
</g>
<mask id="mask1_4600_142" style="mask-type:luminance" maskUnits="userSpaceOnUse" x="519" y="32" width="377" height="252">
<path d="M519.336 32.8438H895.336V284H519.336V32.8438Z" fill="white"/>
</mask>
<g mask="url(#mask1_4600_142)">
<path d="M894.888 220.849V283.031H586.758C577.612 283.031 568.93 281.307 560.805 277.771C552.674 274.328 545.56 269.615 539.56 263.63C533.461 257.651 528.659 250.76 525.148 242.781C521.638 234.807 519.789 226.286 519.789 217.313V98.5625C519.789 89.5885 521.544 81.0677 525.148 73.0885C528.659 65.1146 533.461 58.1354 539.56 52.2396C545.654 46.2604 552.674 41.5469 560.805 38.099C568.93 34.6563 577.612 32.8438 586.758 32.8438H894.888V95.026H616.497V220.755H894.888V220.849ZM670.534 187.307V129.021H875.398V187.307H670.534Z" fill="#B5D411"/>
</g>
<mask id="mask2_4600_142" style="mask-type:luminance" maskUnits="userSpaceOnUse" x="0" y="32" width="474" height="252">
<path d="M0.664062 32.8438H473.997V284H0.664062V32.8438Z" fill="white"/>
</mask>
<g mask="url(#mask2_4600_142)">
<path d="M377.109 95.026H285.297V283.031H188.682V95.026H96.8698V283.031H0.71875V95.9323C0.71875 87.2292 2.56771 79.0729 6.26042 71.3698C9.95833 63.6615 14.8542 57.0469 20.8542 51.3333C26.9531 45.7135 33.974 41.1823 41.9167 37.8281C49.8594 34.474 58.3542 32.8438 67.224 32.8438H473.813V283.031H377.203V95.026H377.109Z" fill="#B5D411"/>
</g>
<mask id="mask3_4600_142" style="mask-type:luminance" maskUnits="userSpaceOnUse" x="519" y="32" width="377" height="252">
<path d="M519.336 32.8438H895.336V284H519.336V32.8438Z" fill="white"/>
</mask>
<g mask="url(#mask3_4600_142)">
<path d="M894.888 220.849V283.031H586.758C577.612 283.031 568.93 281.307 560.805 277.771C552.674 274.328 545.56 269.615 539.56 263.63C533.461 257.651 528.659 250.76 525.148 242.781C521.638 234.807 519.789 226.286 519.789 217.313V98.5625C519.789 89.5885 521.544 81.0677 525.148 73.0885C528.659 65.1146 533.461 58.1354 539.56 52.2396C545.654 46.2604 552.674 41.5469 560.805 38.099C568.93 34.6563 577.612 32.8438 586.758 32.8438H894.888V95.026H616.497V220.755H894.888V220.849ZM670.534 187.307V129.021H875.398V187.307H670.534Z" fill="#B5D411"/>
</g>
<path d="M433.617 354.941V364.697H385.232C383.779 364.697 382.445 364.436 381.148 363.889C379.878 363.342 378.763 362.598 377.799 361.681C376.841 360.764 376.107 359.645 375.549 358.4C374.992 357.155 374.727 355.816 374.727 354.395V335.759C374.727 334.358 374.992 333.025 375.549 331.754C376.107 330.509 376.867 329.415 377.799 328.473C378.763 327.535 379.878 326.811 381.148 326.264C382.419 325.717 383.779 325.457 385.232 325.457H433.591V335.212H389.893V354.941H433.617ZM398.393 349.691V340.551H430.534V349.691H398.393Z" fill="#626262"/>
<path d="M455.935 354.941H499.633V364.697H440.742V325.457H455.914V354.941H455.935Z" fill="#626262"/>
<path d="M565.62 354.941V364.697H517.255C515.807 364.697 514.469 364.436 513.172 363.889C511.901 363.342 510.786 362.598 509.828 361.681C508.87 360.764 508.135 359.645 507.578 358.4C507.016 357.155 506.75 355.816 506.75 354.395V335.759C506.75 334.358 507.016 333.025 507.578 331.754C508.135 330.509 508.891 329.415 509.828 328.473C510.786 327.535 511.901 326.811 513.172 326.264C514.443 325.717 515.807 325.457 517.255 325.457H565.62V335.212H521.917V354.941H565.62ZM530.396 349.691V340.551H562.542V349.691H530.396Z" fill="#626262"/>
<path d="M587.992 354.941H631.69V364.697H583.326C581.878 364.697 580.539 364.436 579.247 363.889C577.971 363.342 576.857 362.598 575.898 361.681C574.94 360.764 574.206 359.645 573.648 358.4C573.091 357.155 572.82 355.816 572.82 354.395V335.759C572.82 334.358 573.091 333.025 573.648 331.754C574.206 330.509 574.966 329.415 575.898 328.473C576.857 327.535 577.971 326.811 579.247 326.264C580.518 325.717 581.878 325.457 583.326 325.457H631.69V335.212H587.992V354.941Z" fill="#626262"/>
<path d="M697.299 335.212H675.664V364.697H660.492V335.212H638.789V325.457H697.326V335.212H697.299Z" fill="#626262"/>
<path d="M748.247 335.212H719.581V364.697H704.414V325.457H751.523C752.997 325.457 754.451 325.697 755.878 326.202C757.279 326.702 758.555 327.405 759.669 328.322C760.784 329.238 761.674 330.311 762.346 331.561C763.013 332.806 763.346 334.186 763.346 335.691V340.395C763.346 341.754 762.992 343.066 762.279 344.311C761.56 345.556 760.628 346.65 759.487 347.592C758.352 348.535 757.081 349.275 755.695 349.848C754.315 350.415 752.951 350.697 751.659 350.697L762.721 364.697H746.44L728.482 341.488H748.247V335.212Z" fill="#626262"/>
<path d="M770.367 354.941H792.07V335.212H770.435V325.457H828.966V335.212H807.263V354.941H828.898V364.697H770.367V354.941Z" fill="#626262"/>
<path d="M851.279 354.941H894.977V364.697H846.617C845.164 364.697 843.826 364.436 842.534 363.889C841.263 363.342 840.148 362.598 839.19 361.681C838.227 360.738 837.492 359.645 836.935 358.4C836.378 357.155 836.086 355.816 836.086 354.395V335.759C836.086 334.358 836.357 333.025 836.935 331.754C837.492 330.509 838.247 329.415 839.19 328.473C840.148 327.535 841.263 326.811 842.534 326.264C843.805 325.717 845.164 325.457 846.617 325.457H894.977V335.212H851.279V354.941Z" fill="#626262"/>
<path d="M440.612 327.691V325.754H439.883V325.457H441.727V325.754H440.997V327.691H440.612Z" fill="#626262"/>
<path d="M442.039 327.691V325.457H442.44L443.159 326.905L443.883 325.457H444.279V327.691H443.893V326.072L443.279 327.306H443.044L442.424 326.072V327.691H442.039Z" fill="#626262"/>
<path d="M60.1406 335.301H45.6458V364.952H30.3906V335.301H15.901V364.952H0.71875V335.441C0.71875 334.072 1.01042 332.785 1.59375 331.566C2.17708 330.353 2.95313 329.311 3.90104 328.41C4.85938 327.52 5.96875 326.806 7.22396 326.275C8.47917 325.749 9.81771 325.488 11.2188 325.488H75.4063V364.952H60.151V335.301H60.1406Z" fill="#626262"/>
<path d="M141.815 355.145V364.952H93.1745C91.7266 364.952 90.3568 364.686 89.0755 364.124C87.7943 363.582 86.6693 362.837 85.7214 361.895C84.7578 360.952 84.0026 359.863 83.4453 358.603C82.8932 357.348 82.6016 356.004 82.6016 354.587V335.858C82.6016 334.441 82.8776 333.098 83.4453 331.837C84.0026 330.582 84.7578 329.478 85.7214 328.551C86.6849 327.608 87.7943 326.863 89.0755 326.322C90.3568 325.775 91.7266 325.488 93.1745 325.488H141.815V335.301H97.8672V355.134H141.815V355.145ZM106.398 349.858V340.66H138.737V349.858H106.398Z" fill="#626262"/>
<path d="M148.977 355.145H170.82V335.301H149.055V325.488H207.914V335.301H186.076V355.134H207.841V364.941H148.977V355.134V355.145Z" fill="#626262"/>
<path d="M230.297 364.952H215.047V325.488H263.833C265.234 325.488 266.563 325.749 267.828 326.275C269.083 326.806 270.193 327.509 271.156 328.41C272.115 329.296 272.875 330.353 273.458 331.566C274.042 332.785 274.333 334.072 274.333 335.441V364.952H259.141V335.301H230.297V364.952Z" fill="#626262"/>
<path d="M340.674 355.145V364.952H292.034C290.591 364.952 289.216 364.686 287.935 364.124C286.654 363.582 285.529 362.837 284.581 361.895C283.622 360.952 282.862 359.863 282.31 358.603C281.753 357.348 281.461 356.004 281.461 354.587V335.858C281.461 334.441 281.737 333.098 282.31 331.837C282.862 330.582 283.622 329.478 284.581 328.551C285.544 327.608 286.654 326.863 287.935 326.322C289.216 325.775 290.591 325.488 292.034 325.488H340.674V335.301H296.732V355.134H340.674V355.145ZM305.258 349.858V340.66H337.596V349.858H305.258Z" fill="#626262"/>
<mask id="mask4_4600_142" style="mask-type:luminance" maskUnits="userSpaceOnUse" x="998" y="0" width="767" height="398">
<path d="M1764.67 0H998V397.333H1764.67V0Z" fill="white"/>
</mask>
<g mask="url(#mask4_4600_142)">
<path d="M1008.81 32.4297H1028.96V103.117H1072.65V119.534H1008.81V32.4297Z" fill="#626262"/>
<path d="M1082.59 52.5977H1102.01V119.535H1082.59V52.5977ZM1092.3 43.2643C1088.72 43.2643 1085.82 42.2331 1083.59 40.1602C1081.35 38.0768 1080.23 35.5039 1080.23 32.431C1080.23 29.3633 1081.35 26.7956 1083.59 24.7227C1085.82 22.6393 1088.72 21.5977 1092.3 21.5977C1095.86 21.5977 1098.77 22.5977 1101.01 24.5977C1103.24 26.5872 1104.36 29.0716 1104.36 32.056C1104.36 35.2956 1103.24 37.9727 1101.01 40.0977C1098.77 42.2122 1095.86 43.2643 1092.3 43.2643Z" fill="#626262"/>
<path d="M1205.77 51.5977C1214.15 51.5977 1220.82 54.0716 1225.75 59.0143C1230.69 63.9466 1233.16 71.3424 1233.16 81.2018V119.535H1213.75V84.2018C1213.75 78.8841 1212.64 74.9206 1210.43 72.306C1208.24 69.6966 1205.11 68.3893 1201.04 68.3893C1196.48 68.3893 1192.88 69.8633 1190.23 72.806C1187.57 75.7539 1186.25 80.1289 1186.25 85.931V119.535H1166.83V84.2018C1166.83 73.6602 1162.6 68.3893 1154.14 68.3893C1149.65 68.3893 1146.09 69.8633 1143.43 72.806C1140.78 75.7539 1139.46 80.1289 1139.46 85.931V119.535H1120.04V52.5977H1138.58V60.306C1141.07 57.4883 1144.11 55.3372 1147.73 53.8477C1151.34 52.3477 1155.29 51.5977 1159.6 51.5977C1164.34 51.5977 1168.61 52.5352 1172.41 54.4102C1176.23 56.2747 1179.31 58.9831 1181.64 62.5352C1184.38 59.0508 1187.84 56.3581 1192.02 54.4518C1196.21 52.5508 1200.79 51.5977 1205.77 51.5977Z" fill="#626262"/>
<path d="M1250.55 52.5977H1269.97V119.535H1250.55V52.5977ZM1260.26 43.2643C1256.68 43.2643 1253.78 42.2331 1251.55 40.1602C1249.31 38.0768 1248.2 35.5039 1248.2 32.431C1248.2 29.3633 1249.31 26.7956 1251.55 24.7227C1253.78 22.6393 1256.68 21.5977 1260.26 21.5977C1263.83 21.5977 1266.73 22.5977 1268.97 24.5977C1271.2 26.5872 1272.32 29.0716 1272.32 32.056C1272.32 35.2956 1271.2 37.9727 1268.97 40.0977C1266.73 42.2122 1263.83 43.2643 1260.26 43.2643Z" fill="#626262"/>
<path d="M1331.19 116.306C1329.28 117.712 1326.93 118.764 1324.15 119.473C1321.37 120.181 1318.45 120.535 1315.38 120.535C1307.42 120.535 1301.26 118.504 1296.9 114.431C1292.55 110.363 1290.38 104.389 1290.38 96.5143V69.0143H1280.05V54.0768H1290.38V37.7852H1309.78V54.0768H1326.46V69.0143H1309.78V96.2643C1309.78 99.0872 1310.49 101.264 1311.94 102.806C1313.4 104.337 1315.46 105.098 1318.13 105.098C1321.2 105.098 1323.81 104.275 1325.96 102.618L1331.19 116.306Z" fill="#626262"/>
<path d="M1342.12 27.2031H1361.54V119.536H1342.12V27.2031Z" fill="#626262"/>
<path d="M1445.16 86.306C1445.16 86.556 1445.03 88.3008 1444.78 91.5352H1394.14C1395.05 95.6914 1397.2 98.9674 1400.59 101.368C1403.99 103.775 1408.23 104.973 1413.3 104.973C1416.79 104.973 1419.88 104.462 1422.57 103.431C1425.27 102.389 1427.77 100.754 1430.09 98.5143L1440.43 109.702C1434.12 116.926 1424.91 120.535 1412.8 120.535C1405.24 120.535 1398.56 119.066 1392.76 116.118C1386.95 113.176 1382.47 109.092 1379.32 103.868C1376.17 98.6341 1374.59 92.6966 1374.59 86.056C1374.59 79.5039 1376.15 73.5924 1379.26 68.3268C1382.37 63.0664 1386.64 58.9622 1392.07 56.0143C1397.52 53.0716 1403.59 51.5977 1410.3 51.5977C1416.85 51.5977 1422.79 53.0091 1428.09 55.8268C1433.41 58.6497 1437.58 62.6914 1440.61 67.9518C1443.64 73.2174 1445.16 79.3372 1445.16 86.306ZM1410.43 66.2852C1406.04 66.2852 1402.35 67.5299 1399.36 70.0143C1396.38 72.5039 1394.55 75.9049 1393.89 80.2227H1426.86C1426.2 75.9883 1424.37 72.6081 1421.39 70.0768C1418.4 67.5508 1414.74 66.2852 1410.43 66.2852Z" fill="#626262"/>
<path d="M1480.6 120.535C1475.04 120.535 1469.61 119.853 1464.29 118.493C1458.98 117.118 1454.75 115.389 1451.6 113.306L1458.08 99.3685C1461.07 101.285 1464.67 102.848 1468.89 104.056C1473.13 105.254 1477.28 105.848 1481.35 105.848C1489.56 105.848 1493.66 103.816 1493.66 99.7435C1493.66 97.8424 1492.54 96.4727 1490.31 95.6393C1488.07 94.806 1484.63 94.1081 1479.98 93.5352C1474.5 92.7018 1469.98 91.7539 1466.41 90.681C1462.84 89.5977 1459.75 87.6914 1457.14 84.9518C1454.53 82.2018 1453.23 78.3008 1453.23 73.2435C1453.23 69.0091 1454.45 65.2591 1456.89 61.9935C1459.35 58.7174 1462.92 56.1706 1467.6 54.3477C1472.28 52.5143 1477.82 51.5977 1484.21 51.5977C1488.94 51.5977 1493.65 52.1185 1498.33 53.1602C1503.02 54.1914 1506.9 55.6133 1509.98 57.431L1503.5 71.2435C1497.61 67.9414 1491.17 66.2852 1484.21 66.2852C1480.07 66.2852 1476.96 66.8685 1474.87 68.0352C1472.8 69.1914 1471.77 70.6758 1471.77 72.4935C1471.77 74.5768 1472.88 76.0352 1475.12 76.8685C1477.37 77.6914 1480.94 78.4727 1485.83 79.2227C1491.3 80.1289 1495.78 81.0977 1499.27 82.1393C1502.75 83.181 1505.78 85.0716 1508.35 87.806C1510.92 90.5456 1512.21 94.3581 1512.21 99.2435C1512.21 103.4 1510.96 107.092 1508.48 110.327C1505.99 113.566 1502.36 116.077 1497.58 117.868C1492.82 119.645 1487.15 120.535 1480.6 120.535Z" fill="#626262"/>
<path d="M1546.67 120.535C1541.11 120.535 1535.68 119.853 1530.36 118.493C1525.05 117.118 1520.82 115.389 1517.67 113.306L1524.15 99.3685C1527.14 101.285 1530.74 102.848 1534.96 104.056C1539.2 105.254 1543.35 105.848 1547.42 105.848C1555.63 105.848 1559.73 103.816 1559.73 99.7435C1559.73 97.8424 1558.61 96.4727 1556.38 95.6393C1554.14 94.806 1550.7 94.1081 1546.05 93.5352C1540.57 92.7018 1536.05 91.7539 1532.48 90.681C1528.91 89.5977 1525.82 87.6914 1523.21 84.9518C1520.6 82.2018 1519.3 78.3008 1519.3 73.2435C1519.3 69.0091 1520.52 65.2591 1522.96 61.9935C1525.42 58.7174 1528.99 56.1706 1533.67 54.3477C1538.35 52.5143 1543.89 51.5977 1550.28 51.5977C1555.01 51.5977 1559.72 52.1185 1564.4 53.1602C1569.09 54.1914 1572.97 55.6133 1576.05 57.431L1569.57 71.2435C1563.68 67.9414 1557.24 66.2852 1550.28 66.2852C1546.14 66.2852 1543.03 66.8685 1540.94 68.0352C1538.87 69.1914 1537.84 70.6758 1537.84 72.4935C1537.84 74.5768 1538.95 76.0352 1541.19 76.8685C1543.44 77.6914 1547.01 78.4727 1551.9 79.2227C1557.37 80.1289 1561.85 81.0977 1565.34 82.1393C1568.82 83.181 1571.85 85.0716 1574.42 87.806C1576.99 90.5456 1578.28 94.3581 1578.28 99.2435C1578.28 103.4 1577.03 107.092 1574.55 110.327C1572.06 113.566 1568.43 116.077 1563.65 117.868C1558.89 119.645 1553.22 120.535 1546.67 120.535Z" fill="#626262"/>
<path d="M1064.31 241.842L1047.5 217.572H1028.96V241.842H1008.81V154.738H1046.52C1054.23 154.738 1060.92 156.025 1066.6 158.592C1072.28 161.165 1076.66 164.816 1079.73 169.551C1082.8 174.275 1084.33 179.874 1084.33 186.342C1084.33 192.816 1082.78 198.4 1079.67 203.092C1076.55 207.775 1072.14 211.358 1066.42 213.842L1085.96 241.842H1064.31ZM1063.94 186.342C1063.94 181.457 1062.36 177.707 1059.21 175.092C1056.05 172.467 1051.45 171.155 1045.4 171.155H1028.96V201.53H1045.4C1051.45 201.53 1056.05 200.207 1059.21 197.551C1062.36 194.884 1063.94 191.15 1063.94 186.342Z" fill="#626262"/>
<path d="M1164.47 208.611C1164.47 208.861 1164.34 210.605 1164.09 213.84H1113.45C1114.36 217.996 1116.52 221.272 1119.91 223.673C1123.31 226.079 1127.54 227.277 1132.61 227.277C1136.1 227.277 1139.19 226.767 1141.89 225.736C1144.58 224.694 1147.08 223.059 1149.41 220.819L1159.74 232.007C1153.43 239.23 1144.22 242.84 1132.11 242.84C1124.56 242.84 1117.88 241.371 1112.07 238.423C1106.27 235.48 1101.79 231.397 1098.64 226.173C1095.48 220.939 1093.91 215.001 1093.91 208.361C1093.91 201.809 1095.46 195.897 1098.57 190.632C1101.68 185.371 1105.95 181.267 1111.39 178.319C1116.83 175.376 1122.91 173.902 1129.61 173.902C1136.17 173.902 1142.1 175.314 1147.41 178.132C1152.72 180.954 1156.9 184.996 1159.93 190.257C1162.95 195.522 1164.47 201.642 1164.47 208.611ZM1129.74 188.59C1125.35 188.59 1121.66 189.835 1118.68 192.319C1115.69 194.809 1113.86 198.21 1113.2 202.527H1146.18C1145.51 198.293 1143.68 194.913 1140.7 192.382C1137.71 189.855 1134.06 188.59 1129.74 188.59Z" fill="#626262"/>
<path d="M1218.08 173.902C1226.38 173.902 1233.08 176.392 1238.18 181.361C1243.28 186.335 1245.83 193.715 1245.83 203.507V241.84H1226.41V206.507C1226.41 201.189 1225.25 197.225 1222.93 194.611C1220.61 192.001 1217.25 190.694 1212.85 190.694C1207.96 190.694 1204.06 192.21 1201.16 195.236C1198.26 198.267 1196.81 202.767 1196.81 208.736V241.84H1177.39V174.902H1195.93V182.736C1198.5 179.918 1201.69 177.746 1205.52 176.215C1209.33 174.673 1213.52 173.902 1218.08 173.902Z" fill="#626262"/>
<path d="M1328.95 208.611C1328.95 208.861 1328.83 210.605 1328.58 213.84H1277.93C1278.85 217.996 1281 221.272 1284.39 223.673C1287.79 226.079 1292.03 227.277 1297.1 227.277C1300.58 227.277 1303.67 226.767 1306.37 225.736C1309.06 224.694 1311.57 223.059 1313.89 220.819L1324.22 232.007C1317.92 239.23 1308.71 242.84 1296.6 242.84C1289.04 242.84 1282.36 241.371 1276.56 238.423C1270.75 235.48 1266.27 231.397 1263.12 226.173C1259.96 220.939 1258.39 215.001 1258.39 208.361C1258.39 201.809 1259.94 195.897 1263.06 190.632C1266.17 185.371 1270.44 181.267 1275.87 178.319C1281.31 175.376 1287.39 173.902 1294.1 173.902C1300.65 173.902 1306.58 175.314 1311.89 178.132C1317.21 180.954 1321.38 184.996 1324.41 190.257C1327.44 195.522 1328.95 201.642 1328.95 208.611ZM1294.22 188.59C1289.83 188.59 1286.15 189.835 1283.16 192.319C1280.17 194.809 1278.35 198.21 1277.68 202.527H1310.66C1309.99 198.293 1308.17 194.913 1305.18 192.382C1302.19 189.855 1298.54 188.59 1294.22 188.59Z" fill="#626262"/>
<path d="M1449.39 174.902L1425.12 241.84H1406.46L1391.39 200.277L1375.85 241.84H1357.18L1333.04 174.902H1351.33L1367.14 220.194L1383.56 174.902H1399.98L1415.91 220.194L1432.21 174.902H1449.39Z" fill="#626262"/>
<path d="M1485.46 173.902C1495.83 173.902 1503.79 176.376 1509.35 181.319C1514.9 186.251 1517.68 193.689 1517.68 203.632V241.84H1499.52V233.507C1495.86 239.73 1489.07 242.84 1479.12 242.84C1473.97 242.84 1469.5 241.97 1465.73 240.236C1461.96 238.486 1459.08 236.079 1457.08 233.007C1455.09 229.939 1454.1 226.454 1454.1 222.548C1454.1 216.329 1456.44 211.439 1461.12 207.882C1465.82 204.314 1473.06 202.527 1482.85 202.527H1498.27C1498.27 198.293 1496.98 195.038 1494.41 192.757C1491.84 190.465 1487.99 189.319 1482.85 189.319C1479.28 189.319 1475.77 189.882 1472.33 191.007C1468.88 192.132 1465.96 193.647 1463.56 195.548L1456.58 181.986C1460.23 179.418 1464.61 177.434 1469.71 176.027C1474.82 174.611 1480.07 173.902 1485.46 173.902ZM1483.98 229.777C1487.28 229.777 1490.22 229.017 1492.79 227.486C1495.37 225.944 1497.2 223.684 1498.27 220.694V213.84H1484.96C1477 213.84 1473.02 216.454 1473.02 221.673C1473.02 224.173 1473.99 226.152 1475.93 227.611C1477.89 229.059 1480.57 229.777 1483.98 229.777Z" fill="#626262"/>
<path d="M1574.78 173.904C1581 173.904 1586.66 175.336 1591.76 178.195C1596.87 181.06 1600.88 185.086 1603.78 190.279C1606.68 195.461 1608.14 201.487 1608.14 208.362C1608.14 215.253 1606.68 221.294 1603.78 226.487C1600.88 231.669 1596.87 235.69 1591.76 238.549C1586.66 241.414 1581 242.841 1574.78 242.841C1565.57 242.841 1558.56 239.94 1553.76 234.133V241.841H1535.22V149.508H1554.64V181.987C1559.52 176.602 1566.24 173.904 1574.78 173.904ZM1571.43 226.904C1576.41 226.904 1580.5 225.227 1583.7 221.862C1586.89 218.503 1588.49 214.003 1588.49 208.362C1588.49 202.727 1586.89 198.227 1583.7 194.862C1580.5 191.503 1576.41 189.82 1571.43 189.82C1566.45 189.82 1562.37 191.503 1559.18 194.862C1555.98 198.227 1554.39 202.727 1554.39 208.362C1554.39 214.003 1555.98 218.503 1559.18 221.862C1562.37 225.227 1566.45 226.904 1571.43 226.904Z" fill="#626262"/>
<path d="M1621.07 149.508H1640.49V241.841H1621.07V149.508Z" fill="#626262"/>
<path d="M1724.1 208.611C1724.1 208.861 1723.98 210.605 1723.73 213.84H1673.08C1674 217.996 1676.15 221.272 1679.54 223.673C1682.94 226.079 1687.17 227.277 1692.25 227.277C1695.73 227.277 1698.82 226.767 1701.52 225.736C1704.21 224.694 1706.72 223.059 1709.04 220.819L1719.37 232.007C1713.07 239.23 1703.86 242.84 1691.75 242.84C1684.19 242.84 1677.51 241.371 1671.71 238.423C1665.9 235.48 1661.42 231.397 1658.27 226.173C1655.11 220.939 1653.54 215.001 1653.54 208.361C1653.54 201.809 1655.09 195.897 1658.21 190.632C1661.32 185.371 1665.59 181.267 1671.02 178.319C1676.46 175.376 1682.54 173.902 1689.25 173.902C1695.8 173.902 1701.73 175.314 1707.04 178.132C1712.36 180.954 1716.53 184.996 1719.56 190.257C1722.59 195.522 1724.1 201.642 1724.1 208.611ZM1689.37 188.59C1684.98 188.59 1681.29 189.835 1678.31 192.319C1675.32 194.809 1673.5 198.21 1672.83 202.527H1705.81C1705.14 198.293 1703.32 194.913 1700.33 192.382C1697.34 189.855 1693.69 188.59 1689.37 188.59Z" fill="#626262"/>
<path d="M1076.25 347.98V364.147H1008.81V277.043H1074.63V293.21H1028.83V312.126H1069.29V327.814H1028.83V347.98H1076.25Z" fill="#B5D411"/>
<path d="M1131.61 296.211C1139.91 296.211 1146.61 298.701 1151.71 303.669C1156.81 308.643 1159.36 316.023 1159.36 325.815V364.148H1139.94V328.815C1139.94 323.497 1138.78 319.534 1136.46 316.919C1134.14 314.31 1130.78 313.003 1126.38 313.003C1121.49 313.003 1117.59 314.518 1114.69 317.544C1111.79 320.576 1110.34 325.076 1110.34 331.044V364.148H1090.92V297.211H1109.46V305.044C1112.03 302.227 1115.22 300.055 1119.05 298.523C1122.86 296.982 1127.05 296.211 1131.61 296.211Z" fill="#B5D411"/>
<path d="M1242.48 330.919C1242.48 331.169 1242.35 332.914 1242.1 336.148H1191.46C1192.37 340.305 1194.52 343.581 1197.91 345.982C1201.32 348.388 1205.55 349.586 1210.62 349.586C1214.11 349.586 1217.2 349.076 1219.89 348.044C1222.59 347.003 1225.09 345.367 1227.41 343.128L1237.75 354.315C1231.44 361.539 1222.23 365.148 1210.12 365.148C1202.57 365.148 1195.88 363.68 1190.08 360.732C1184.27 357.789 1179.79 353.706 1176.64 348.482C1173.49 343.247 1171.91 337.31 1171.91 330.669C1171.91 324.117 1173.47 318.206 1176.58 312.94C1179.69 307.68 1183.96 303.576 1189.39 300.628C1194.84 297.685 1200.91 296.211 1207.62 296.211C1214.17 296.211 1220.11 297.622 1225.41 300.44C1230.73 303.263 1234.9 307.305 1237.93 312.565C1240.96 317.831 1242.48 323.951 1242.48 330.919ZM1207.75 310.898C1203.36 310.898 1199.67 312.143 1196.68 314.628C1193.7 317.117 1191.87 320.518 1191.21 324.836H1224.18C1223.52 320.602 1221.69 317.221 1218.71 314.69C1215.72 312.164 1212.07 310.898 1207.75 310.898Z" fill="#B5D411"/>
<path d="M1273.95 306.044C1276.27 302.81 1279.4 300.367 1283.34 298.711C1287.29 297.044 1291.83 296.211 1296.97 296.211V314.128C1294.81 313.961 1293.36 313.878 1292.61 313.878C1287.06 313.878 1282.7 315.435 1279.55 318.544C1276.4 321.659 1274.82 326.326 1274.82 332.544V364.148H1255.41V297.211H1273.95V306.044Z" fill="#B5D411"/>
<path d="M1378.09 297.211V352.94C1378.09 365.216 1374.89 374.341 1368.51 380.315C1362.11 386.299 1352.78 389.294 1340.51 389.294C1334.03 389.294 1327.89 388.503 1322.09 386.919C1316.28 385.346 1311.47 383.07 1307.65 380.086L1315.38 366.148C1318.2 368.466 1321.76 370.305 1326.07 371.669C1330.39 373.044 1334.7 373.732 1339.03 373.732C1345.73 373.732 1350.68 372.216 1353.88 369.19C1357.07 366.159 1358.67 361.581 1358.67 355.44V352.586C1353.61 358.143 1346.57 360.919 1337.53 360.919C1331.39 360.919 1325.76 359.576 1320.65 356.878C1315.55 354.169 1311.51 350.372 1308.53 345.482C1305.54 340.596 1304.05 334.956 1304.05 328.565C1304.05 322.18 1305.54 316.539 1308.53 311.648C1311.51 306.747 1315.55 302.951 1320.65 300.253C1325.76 297.56 1331.39 296.211 1337.53 296.211C1347.23 296.211 1354.61 299.409 1359.67 305.794V297.211H1378.09ZM1341.38 344.982C1346.52 344.982 1350.72 343.471 1354.01 340.44C1357.28 337.414 1358.92 333.456 1358.92 328.565C1358.92 323.664 1357.28 319.701 1354.01 316.669C1350.72 313.643 1346.52 312.128 1341.38 312.128C1336.24 312.128 1332.01 313.643 1328.69 316.669C1325.37 319.701 1323.71 323.664 1323.71 328.565C1323.71 333.456 1325.37 337.414 1328.69 340.44C1332.01 343.471 1336.24 344.982 1341.38 344.982Z" fill="#B5D411"/>
<path d="M1462.58 297.211L1432.33 368.253C1429.26 375.971 1425.46 381.409 1420.93 384.565C1416.42 387.716 1410.97 389.294 1404.58 389.294C1401.09 389.294 1397.65 388.753 1394.25 387.669C1390.86 386.586 1388.08 385.091 1385.91 383.19L1393.02 369.378C1394.5 370.695 1396.22 371.732 1398.16 372.482C1400.12 373.232 1402.05 373.607 1403.96 373.607C1406.61 373.607 1408.76 372.961 1410.41 371.669C1412.08 370.388 1413.58 368.258 1414.91 365.273L1415.16 364.648L1386.16 297.211H1406.21L1425 342.628L1443.91 297.211H1462.58Z" fill="#B5D411"/>
</g>
</svg>
